<svg id="Layer_1" data-name="Layer 1" xmlns="http://www.w3.org/2000/svg" xmlns:xlink="http://www.w3.org/1999/xlink" viewBox="0 0 1000 127"><defs><style>.cls-1{fill:#002826;}.cls-2{fill:url(#linear-gradient);}.cls-3{fill:url(#linear-gradient-2);}.cls-4{fill:url(#linear-gradient-3);}.cls-5{fill:url(#linear-gradient-4);}.cls-6{fill:url(#linear-gradient-5);}</style><linearGradient id="linear-gradient" x1="39.52" y1="-7.23" x2="42.04" y2="106.72" gradientUnits="userSpaceOnUse"><stop offset="0" stop-color="#00c1bc"/><stop offset="1" stop-color="#025652"/></linearGradient><linearGradient id="linear-gradient-2" x1="108.59" y1="-8.75" x2="111.11" y2="105.19" xlink:href="#linear-gradient"/><linearGradient id="linear-gradient-3" x1="177.36" y1="-10.27" x2="179.88" y2="103.67" xlink:href="#linear-gradient"/><linearGradient id="linear-gradient-4" x1="232.84" y1="-11.5" x2="235.36" y2="102.44" xlink:href="#linear-gradient"/><linearGradient id="linear-gradient-5" x1="308.21" y1="-13.17" x2="310.73" y2="100.78" xlink:href="#linear-gradient"/></defs><title>logo-wide</title><path class="cls-1" d="M379,84.87a34.72,34.72,0,0,1-13.3-13,36.13,36.13,0,0,1-4.86-18.62,36.16,36.16,0,0,1,4.86-18.63,34.86,34.86,0,0,1,13.3-13,38.3,38.3,0,0,1,19-4.71,39.8,39.8,0,0,1,14.33,2.51,29.48,29.48,0,0,1,11.15,7.42l-3.27,3.37q-8.59-8.49-22-8.49a33.1,33.1,0,0,0-16.37,4.1,29.92,29.92,0,0,0-11.57,11.3A31.53,31.53,0,0,0,366,53.26a31.52,31.52,0,0,0,4.19,16.11,30,30,0,0,0,11.57,11.31,33.09,33.09,0,0,0,16.37,4.09q13.31,0,22-8.59l3.27,3.37A29.82,29.82,0,0,1,412.21,87a39.08,39.08,0,0,1-14.28,2.56A38.3,38.3,0,0,1,379,84.87Z"/><path class="cls-1" d="M450.73,84.82a35.06,35.06,0,0,1-13.35-13,35.94,35.94,0,0,1-4.86-18.52,35.92,35.92,0,0,1,4.86-18.52,35,35,0,0,1,13.35-13,40.63,40.63,0,0,1,38.07-.05,34.72,34.72,0,0,1,13.35,13A36.16,36.16,0,0,1,507,53.26a36.13,36.13,0,0,1-4.86,18.62,34.58,34.58,0,0,1-13.35,13,38.61,38.61,0,0,1-19,4.71A38.18,38.18,0,0,1,450.73,84.82ZM486,80.68a30.21,30.21,0,0,0,11.46-11.31,31.43,31.43,0,0,0,4.2-16.11,31.44,31.44,0,0,0-4.2-16.12A30.11,30.11,0,0,0,486,25.84a34.43,34.43,0,0,0-32.59,0,30,30,0,0,0-11.51,11.3,31.44,31.44,0,0,0-4.19,16.12,31.42,31.42,0,0,0,4.19,16.11,30.06,30.06,0,0,0,11.51,11.31,34.51,34.51,0,0,0,32.59,0Z"/><path class="cls-1" d="M592.86,89.07l-.11-61.29-30,51.77h-2.55L530.24,28V89.07h-5.12V17.44h4.4l32,55.36,32-55.36h4.3l.1,71.63Z"/><path class="cls-1" d="M690.68,89.07l-.11-61.29-30,51.77H658L628.06,28V89.07h-5.12V17.44h4.4l32,55.36,32-55.36h4.3l.1,71.63Z"/><path class="cls-1" d="M770.18,84.36v4.71H720.76V17.44h47.89v4.71H726V50.39h38.16V55H726V84.36Z"/><path class="cls-1" d="M838.94,89.07,821.85,65.13a52.34,52.34,0,0,1-7,.51H794.43V89.07h-5.22V17.44h25.68q13.51,0,21.19,6.4t7.67,17.75a23.08,23.08,0,0,1-4.35,14.28A23.06,23.06,0,0,1,827,64l17.91,25.07ZM814.89,61q11.46,0,17.5-5.06t6-14.38q0-9.3-6-14.37t-17.5-5.07H794.43V61Z"/><path class="cls-1" d="M874.19,84.87a34.65,34.65,0,0,1-13.3-13A36.13,36.13,0,0,1,856,53.26a36.16,36.16,0,0,1,4.86-18.63,34.79,34.79,0,0,1,13.3-13,38.28,38.28,0,0,1,19-4.71,39.84,39.84,0,0,1,14.33,2.51,29.48,29.48,0,0,1,11.15,7.42l-3.28,3.37q-8.6-8.49-22-8.49A33.15,33.15,0,0,0,877,25.84a29.89,29.89,0,0,0-11.56,11.3,31.44,31.44,0,0,0-4.19,16.12,31.42,31.42,0,0,0,4.19,16.11A30,30,0,0,0,877,80.68a33.14,33.14,0,0,0,16.37,4.09q13.3,0,22-8.59l3.28,3.37A29.85,29.85,0,0,1,907.44,87a39,39,0,0,1-14.27,2.56A38.28,38.28,0,0,1,874.19,84.87Z"/><path class="cls-1" d="M985.57,84.36v4.71H936.14V17.44H984v4.71H941.36V50.39h38.17V55H941.36V84.36Z"/><path class="cls-2" d="M59.6,51.53a32.92,32.92,0,0,0-10.09-4.48,60.75,60.75,0,0,0-13.63-1.91c-3.51,0-5.75-.71-6.75-2.13a8,8,0,0,1-1.49-4.69,5.55,5.55,0,0,1,1.28-3.27,10.55,10.55,0,0,1,3.55-2.91,16,16,0,0,1,5.4-1.63,17,17,0,0,1,6.81.57,29.57,29.57,0,0,1,4.12,1.56,18.63,18.63,0,0,1,5.4,4,5.82,5.82,0,0,0,4.62,1.91,6.22,6.22,0,0,0,4.61-2.06,5.93,5.93,0,0,0,2-4.54,6.41,6.41,0,0,0-2-4.69,34.24,34.24,0,0,0-11.15-7.53,29.11,29.11,0,0,0-10.86-2.55,35.1,35.1,0,0,0-11.36,1.7,26.91,26.91,0,0,0-8.45,4.55,19.35,19.35,0,0,0-5.33,6.67,18.79,18.79,0,0,0-1.85,8.24,21.12,21.12,0,0,0,1.42,7.74,19.74,19.74,0,0,0,4,6.39,18.31,18.31,0,0,0,6.39,4.33,21.9,21.9,0,0,0,8.45,1.56c6.25,0,11.15.91,14.7,2.7s5.33,3.79,5.33,6a6.49,6.49,0,0,1-3.48,5.89A17.26,17.26,0,0,1,42.41,75a17.88,17.88,0,0,1-9.16-2.06,47,47,0,0,1-7.31-5.47,12.83,12.83,0,0,0-2.35-1.7A5.49,5.49,0,0,0,21,65.16a6.22,6.22,0,0,0-4.69,1.92,6.6,6.6,0,0,0-1.85,4.76,9.65,9.65,0,0,0,.29,2.48,4.31,4.31,0,0,0,1.13,1.92,29,29,0,0,0,4.55,4.4,35.32,35.32,0,0,0,6.11,3.84,37.48,37.48,0,0,0,7.24,2.7,32.19,32.19,0,0,0,8.09,1,35.69,35.69,0,0,0,11.72-1.71,23,23,0,0,0,8.1-4.61A18.2,18.2,0,0,0,66.41,75,23.12,23.12,0,0,0,68,66.44a16.73,16.73,0,0,0-2.13-8.24A19.93,19.93,0,0,0,59.6,51.53Z"/><path class="cls-3" d="M134.8,27.53a37.61,37.61,0,0,0-11.65-7.6,35.71,35.71,0,0,0-14-2.77,24.06,24.06,0,0,0-6.39.85A26.63,26.63,0,0,0,97,20.35a26.09,26.09,0,0,0-4.83,3.41,19.44,19.44,0,0,0-3.41,3.91V17.16h-.09a6.59,6.59,0,0,0-13.18,0,6.8,6.8,0,0,0,.06.9v92.09a6.21,6.21,0,0,0,2,4.62,6.54,6.54,0,0,0,4.69,1.92,6.56,6.56,0,0,0,6.53-6.54v-31A30.66,30.66,0,0,0,97,85.33a25.44,25.44,0,0,0,12.14,2.84,35.71,35.71,0,0,0,14-2.77,37.79,37.79,0,0,0,11.65-7.6,35.87,35.87,0,0,0,7.95-11.29,34.39,34.39,0,0,0,0-27.69A35.76,35.76,0,0,0,134.8,27.53ZM130.54,61.4a22.86,22.86,0,0,1-5.12,7A25.15,25.15,0,0,1,118,73.19,22.56,22.56,0,0,1,109.16,75a20.37,20.37,0,0,1-8.45-1.7,20.13,20.13,0,0,1-6.39-4.48,21,21,0,0,1-4.12-6.25,17.73,17.73,0,0,1-1.49-7V51.67a21.44,21.44,0,0,1,1.49-7.81A22,22,0,0,1,94.39,37a21.21,21.21,0,0,1,6.47-4.83,18.55,18.55,0,0,1,8.3-1.84A22.56,22.56,0,0,1,118,32.14a25.15,25.15,0,0,1,7.38,4.76,22.86,22.86,0,0,1,5.12,7,20.83,20.83,0,0,1,0,17.47Z"/><path class="cls-4" d="M202.61,23.83a6.53,6.53,0,0,0-6.67-6.67,35.69,35.69,0,0,0-15.7,3.76,36.26,36.26,0,0,0-12.14,9.87V17.16c0-1.68-.75-6.88-6.5-6.88s-6.68,4.46-6.68,6.68,0,64.68,0,64.68a6.33,6.33,0,0,0,6.54,6.53,6.57,6.57,0,0,0,4.75-1.85,6.21,6.21,0,0,0,1.92-4.68V56.07a21.67,21.67,0,0,1,2.2-9.44,28.17,28.17,0,0,1,6-8.24,29.84,29.84,0,0,1,8.8-5.82,26.8,26.8,0,0,1,10.87-2.2,6.61,6.61,0,0,0,4.76-1.85A6.25,6.25,0,0,0,202.61,23.83Z"/><path class="cls-5" d="M263.26,31.36a37,37,0,0,0-9.95-9,35.64,35.64,0,0,0-12.92-4.83,35.09,35.09,0,0,0-14.49.64,35.61,35.61,0,0,0-12.71,6.11A36.12,36.12,0,0,0,204,34.41a34.86,34.86,0,0,0-4.61,12.86,36.3,36.3,0,0,0,6.88,26.91,36.16,36.16,0,0,0,10.16,9.16A34.82,34.82,0,0,0,229.31,88a35.52,35.52,0,0,0,14.2-.78,34.5,34.5,0,0,0,12.86-6.25,37.67,37.67,0,0,0,9.16-10.37,6.7,6.7,0,0,0,.78-5.11,5.85,5.85,0,0,0-3.05-4,6,6,0,0,0-4.9-.78,5.92,5.92,0,0,0-4.05,2.91,22.29,22.29,0,0,1-5.9,6.6,22.52,22.52,0,0,1-8.16,4.19,22,22,0,0,1-7.67.64,24.44,24.44,0,0,1-13.49-5.54,19.72,19.72,0,0,1-4.69-5.61l49.42-12.64a8.42,8.42,0,0,0,2.63-1,5,5,0,0,0,1.92-2.13,6.12,6.12,0,0,0,.71-5A33.69,33.69,0,0,0,263.26,31.36ZM245.93,42.15q-5.27,1.43-11.43,3l-12.43,3.12q-6.25,1.56-10.94,2.7a15.58,15.58,0,0,1,1.49-6.61,23.16,23.16,0,0,1,4-5.89,26.61,26.61,0,0,1,5.75-4.69,23.91,23.91,0,0,1,6.82-2.84,20,20,0,0,1,9-.49,27.81,27.81,0,0,1,7.6,2.48,22.55,22.55,0,0,1,5.46,3.77A9.75,9.75,0,0,1,253.74,40C252,40.5,249.43,41.21,245.93,42.15Z"/><path class="cls-6" d="M344.49,43.15a33.52,33.52,0,0,0-5.82-11.79,37.08,37.08,0,0,0-9.94-9,35.68,35.68,0,0,0-12.93-4.83,35,35,0,0,0-14.48.64,35.45,35.45,0,0,0-12.71,6.11,35.82,35.82,0,0,0-9.16,10.15,34.87,34.87,0,0,0-4.62,12.86,36.25,36.25,0,0,0,6.89,26.91,36,36,0,0,0,10.15,9.16A34.81,34.81,0,0,0,304.73,88a35.53,35.53,0,0,0,14.2-.78,34.46,34.46,0,0,0,12.85-6.25,37.67,37.67,0,0,0,9.16-10.37,6.66,6.66,0,0,0,.78-5.11,5.79,5.79,0,0,0-3.05-4,6,6,0,0,0-4.9-.78,5.92,5.92,0,0,0-4,2.91,22.38,22.38,0,0,1-5.89,6.6,22.64,22.64,0,0,1-8.17,4.19A21.94,21.94,0,0,1,308,75a24.44,24.44,0,0,1-13.49-5.54,19.72,19.72,0,0,1-4.69-5.61l49.43-12.64a8.45,8.45,0,0,0,2.62-1,4.88,4.88,0,0,0,1.92-2.13A6.08,6.08,0,0,0,344.49,43.15Zm-23.15-1q-5.25,1.43-11.43,3l-12.43,3.12q-6.25,1.56-10.93,2.7A15.43,15.43,0,0,1,288,44.35a23.12,23.12,0,0,1,4-5.89,26.67,26.67,0,0,1,5.76-4.69,23.85,23.85,0,0,1,6.81-2.84,20,20,0,0,1,8.95-.49,27.81,27.81,0,0,1,7.6,2.48,22.62,22.62,0,0,1,5.47,3.77A9.69,9.69,0,0,1,329.15,40C327.45,40.5,324.84,41.21,321.34,42.15Z"/></svg>