<svg id="Layer_1" data-name="Layer 1" xmlns="http://www.w3.org/2000/svg" xmlns:xlink="http://www.w3.org/1999/xlink" viewBox="0 0 1000 474"><defs><style>.cls-1{fill:#002826;}.cls-2{fill:url(#linear-gradient);}.cls-3{fill:url(#linear-gradient-2);}.cls-4{fill:url(#linear-gradient-3);}.cls-5{fill:url(#linear-gradient-4);}.cls-6{fill:url(#linear-gradient-5);}</style><linearGradient id="linear-gradient" x1="124.13" y1="-12.39" x2="130.89" y2="293.38" gradientUnits="userSpaceOnUse"><stop offset="0" stop-color="#00c1bc"/><stop offset="1" stop-color="#025652"/></linearGradient><linearGradient id="linear-gradient-2" x1="309.51" y1="-16.49" x2="316.26" y2="289.28" xlink:href="#linear-gradient"/><linearGradient id="linear-gradient-3" x1="494.04" y1="-20.57" x2="500.8" y2="285.21" xlink:href="#linear-gradient"/><linearGradient id="linear-gradient-4" x1="642.92" y1="-23.86" x2="649.68" y2="281.92" xlink:href="#linear-gradient"/><linearGradient id="linear-gradient-5" x1="845.19" y1="-28.33" x2="851.95" y2="277.45" xlink:href="#linear-gradient"/></defs><title>logo-stacked</title><path class="cls-1" d="M83.89,432.77a49,49,0,0,1-18.73-18.3,53.66,53.66,0,0,1,0-52.43,49,49,0,0,1,18.73-18.3,53.89,53.89,0,0,1,26.72-6.63,56,56,0,0,1,20.17,3.53,41.72,41.72,0,0,1,15.71,10.45l-4.61,4.75q-12.1-12-31-12a46.69,46.69,0,0,0-23.05,5.77,42.21,42.21,0,0,0-16.28,15.92,46.58,46.58,0,0,0,0,45.38,42.19,42.19,0,0,0,16.28,15.91,46.59,46.59,0,0,0,23.05,5.77q18.73,0,31-12.1l4.61,4.75a42.22,42.22,0,0,1-15.78,10.52,55.12,55.12,0,0,1-20.1,3.6A53.89,53.89,0,0,1,83.89,432.77Z"/><path class="cls-1" d="M185,432.7a49.37,49.37,0,0,1-18.8-18.37,53.12,53.12,0,0,1,0-52.15A49.37,49.37,0,0,1,185,343.81a57.19,57.19,0,0,1,53.59-.07,48.84,48.84,0,0,1,18.8,18.3,53.66,53.66,0,0,1,0,52.43,48.84,48.84,0,0,1-18.8,18.3A57.19,57.19,0,0,1,185,432.7Zm49.7-5.84A42.35,42.35,0,0,0,250.78,411a46.51,46.51,0,0,0,0-45.38,42.37,42.37,0,0,0-16.13-15.92,48.49,48.49,0,0,0-45.88,0,42.3,42.3,0,0,0-16.21,15.92,46.51,46.51,0,0,0,0,45.38,42.28,42.28,0,0,0,16.21,15.91,48.49,48.49,0,0,0,45.88,0Z"/><path class="cls-1" d="M385.05,438.68l-.14-86.3-42.21,72.9h-3.61l-42.21-72.61v86h-7.2V337.83h6.2L341,415.77l45.09-77.94h6.05l.14,100.85Z"/><path class="cls-1" d="M522.77,438.68l-.14-86.3-42.21,72.9h-3.6l-42.21-72.61v86H427.4V337.83h6.2l45.09,77.94,45.09-77.94h6.05L530,438.68Z"/><path class="cls-1" d="M634.71,432.05v6.63H565.13V337.83h67.42v6.63H572.47v39.76h53.74v6.48H572.47v41.35Z"/><path class="cls-1" d="M731.52,438.68,707.46,405a73.71,73.71,0,0,1-9.8.72H668.85v33H661.5V337.83h36.16q19,0,29.82,9t10.81,25q0,12-6.13,20.1t-17.5,11.45l25.21,35.3ZM697.66,399.2q16.14,0,24.64-7.13t8.5-20.24q0-13.11-8.5-20.24t-24.64-7.13H668.85V399.2Z"/><path class="cls-1" d="M781.14,432.77a49.07,49.07,0,0,1-18.73-18.3,53.66,53.66,0,0,1,0-52.43,49.07,49.07,0,0,1,18.73-18.3,53.93,53.93,0,0,1,26.73-6.63A56.09,56.09,0,0,1,828,340.64a41.68,41.68,0,0,1,15.7,10.45l-4.61,4.75q-12.11-12-31-12a46.63,46.63,0,0,0-23,5.77,42.08,42.08,0,0,0-16.28,15.92,46.51,46.51,0,0,0,0,45.38,42.05,42.05,0,0,0,16.28,15.91,46.52,46.52,0,0,0,23,5.77q18.74,0,31-12.1l4.61,4.75A42.14,42.14,0,0,1,828,435.8a55.11,55.11,0,0,1-20.09,3.6A53.93,53.93,0,0,1,781.14,432.77Z"/><path class="cls-1" d="M938,432.05v6.63H868.37V337.83h67.42v6.63H875.72v39.76h53.73v6.48H875.72v41.35Z"/><path class="cls-2" d="M178,145.28q-11.07-7.62-27.06-12a162,162,0,0,0-36.59-5.14q-14.1,0-18.1-5.72a21.44,21.44,0,0,1-4-12.58q0-4.18,3.43-8.76a28,28,0,0,1,9.53-7.81,43,43,0,0,1,14.48-4.39A46.3,46.3,0,0,1,138,90.4a82.27,82.27,0,0,1,11.05,4.19q6.85,3.06,14.48,10.67a15.57,15.57,0,0,0,12.39,5.14,16.8,16.8,0,0,0,12.39-5.52,16,16,0,0,0,5.33-12.2,17.23,17.23,0,0,0-5.33-12.57,91.54,91.54,0,0,0-29.92-20.2Q141.82,53,129.23,53.05q-17.14,0-30.49,4.57a72.82,72.82,0,0,0-22.67,12.2,52.12,52.12,0,0,0-14.3,17.91,50.33,50.33,0,0,0-5,22.1,56.4,56.4,0,0,0,3.81,20.78,52.66,52.66,0,0,0,10.86,17.15,49.41,49.41,0,0,0,17.15,11.62,58.57,58.57,0,0,0,22.68,4.19q25.16,0,39.45,7.24t14.29,16q0,10.29-9.34,15.82t-23.82,5.52q-15.24,0-24.58-5.52A128.16,128.16,0,0,1,87.69,188a33.79,33.79,0,0,0-6.29-4.57,14.91,14.91,0,0,0-7.05-1.53A16.72,16.72,0,0,0,61.77,187a17.7,17.7,0,0,0-5,12.77,26,26,0,0,0,.76,6.67,11.4,11.4,0,0,0,3.05,5.14,77,77,0,0,0,12.2,11.82A94.45,94.45,0,0,0,89.22,233.7a97.87,97.87,0,0,0,19.43,7.24,86.19,86.19,0,0,0,21.73,2.67q18.28,0,31.44-4.58a61.77,61.77,0,0,0,21.72-12.38,48.91,48.91,0,0,0,12.77-18.49,62,62,0,0,0,4.19-22.86,44.81,44.81,0,0,0-5.71-22.11A53.35,53.35,0,0,0,178,145.28Z"/><path class="cls-3" d="M379.83,80.87a101.47,101.47,0,0,0-31.26-20.39A96,96,0,0,0,311,53.05a65,65,0,0,0-17.15,2.28,70.51,70.51,0,0,0-15.62,6.29,69.59,69.59,0,0,0-13,9.15,52.54,52.54,0,0,0-9.15,10.48V53.05h-.24a17.7,17.7,0,1,0-35.2,2.49V302.68A16.58,16.58,0,0,0,226,315.07a17.52,17.52,0,0,0,12.58,5.14,17.57,17.57,0,0,0,17.53-17.53V219.6q8,8.78,22.3,16.39T311,243.61a96.16,96.16,0,0,0,37.54-7.43,101.65,101.65,0,0,0,31.26-20.39,96.51,96.51,0,0,0,21.34-30.3,92.31,92.31,0,0,0,0-74.32A96.51,96.51,0,0,0,379.83,80.87Zm-11.44,90.9a61.49,61.49,0,0,1-13.72,18.86,67.3,67.3,0,0,1-19.82,12.77A60.35,60.35,0,0,1,311,208.16a53.9,53.9,0,0,1-39.83-16.58,56.36,56.36,0,0,1-11.05-16.77,47.43,47.43,0,0,1-4-18.86V145.66a57.35,57.35,0,0,1,4-21,58.66,58.66,0,0,1,11.25-18.3,57,57,0,0,1,17.34-13,50.07,50.07,0,0,1,22.29-5,60.35,60.35,0,0,1,23.82,4.77A67.48,67.48,0,0,1,354.67,106a61.66,61.66,0,0,1,13.72,18.87,55.92,55.92,0,0,1,0,46.88Z"/><path class="cls-4" d="M561.81,71A17.58,17.58,0,0,0,543.9,53.05a95.65,95.65,0,0,0-42.12,10.1A97,97,0,0,0,469.2,89.63V53.05c0-4.51-2-18.45-17.46-18.45s-17.93,11.95-17.93,17.93-.06,173.55-.06,173.55a17,17,0,0,0,17.53,17.53,17.7,17.7,0,0,0,12.77-5,16.74,16.74,0,0,0,5.15-12.58V157.47a58.27,58.27,0,0,1,5.9-25.34,75.58,75.58,0,0,1,16-22.1A79.54,79.54,0,0,1,514.74,94.4a72,72,0,0,1,29.16-5.91,17.68,17.68,0,0,0,12.76-4.95A16.72,16.72,0,0,0,561.81,71Z"/><path class="cls-5" d="M724.55,91.16A99.48,99.48,0,0,0,697.87,67a95.18,95.18,0,0,0-34.69-13,94.06,94.06,0,0,0-38.87,1.71,96.43,96.43,0,0,0-58.69,43.64,93.63,93.63,0,0,0-12.39,34.5,97.41,97.41,0,0,0,18.48,72.22A96.51,96.51,0,0,0,599,230.65,93.64,93.64,0,0,0,633.46,243a95,95,0,0,0,38.11-2.1,91.86,91.86,0,0,0,34.49-16.77,100.31,100.31,0,0,0,24.58-27.82,18,18,0,0,0,2.1-13.72A15.59,15.59,0,0,0,724.55,172a16.2,16.2,0,0,0-13.15-2.1,15.88,15.88,0,0,0-10.86,7.81,60.31,60.31,0,0,1-15.82,17.73,61.06,61.06,0,0,1-21.92,11.24,59.39,59.39,0,0,1-20.58,1.71A65.82,65.82,0,0,1,606,193.49a53.1,53.1,0,0,1-12.58-15.06l132.63-33.91a22.57,22.57,0,0,0,7-2.67,13.4,13.4,0,0,0,5.15-5.72,16.36,16.36,0,0,0,1.9-13.34A90.11,90.11,0,0,0,724.55,91.16Zm-46.5,29q-14.1,3.82-30.68,8T614,136.51q-16.77,4.2-29.35,7.24a41.6,41.6,0,0,1,4-17.72,61.91,61.91,0,0,1,10.68-15.82,71,71,0,0,1,15.43-12.57A63.26,63.26,0,0,1,633.08,90a53.7,53.7,0,0,1,24-1.34,74.12,74.12,0,0,1,20.39,6.67,61,61,0,0,1,14.67,10.1q5.72,5.53,6.86,9Q692.16,116.32,678.05,120.12Z"/><path class="cls-6" d="M942.55,122.79a90,90,0,0,0-15.63-31.63A99.18,99.18,0,0,0,900.24,67a95.2,95.2,0,0,0-34.68-13,94.1,94.1,0,0,0-38.88,1.71A96.43,96.43,0,0,0,768,99.35a93.81,93.81,0,0,0-12.39,34.5,97.36,97.36,0,0,0,18.49,72.22,96.34,96.34,0,0,0,27.25,24.58A93.7,93.7,0,0,0,835.83,243a95,95,0,0,0,38.11-2.1,91.9,91.9,0,0,0,34.5-16.77A100.63,100.63,0,0,0,933,196.35a18,18,0,0,0,2.1-13.72,15.6,15.6,0,0,0-8.2-10.67,16.19,16.19,0,0,0-13.15-2.1,15.93,15.93,0,0,0-10.86,7.81,60,60,0,0,1-15.82,17.73,61.1,61.1,0,0,1-21.91,11.24,59.39,59.39,0,0,1-20.58,1.71,65.81,65.81,0,0,1-36.21-14.86,53.1,53.1,0,0,1-12.58-15.06l132.63-33.91a22.72,22.72,0,0,0,7.06-2.67,13.38,13.38,0,0,0,5.14-5.72A16.32,16.32,0,0,0,942.55,122.79Zm-62.13-2.67q-14.1,3.82-30.68,8t-33.35,8.38q-16.77,4.2-29.34,7.24a41.45,41.45,0,0,1,4-17.72,61.87,61.87,0,0,1,10.67-15.82,71.1,71.1,0,0,1,15.44-12.57A63.32,63.32,0,0,1,835.45,90a53.71,53.71,0,0,1,24-1.34,74,74,0,0,1,20.39,6.67,60.75,60.75,0,0,1,14.67,10.1c3.82,3.69,6.1,6.67,6.87,9Q894.52,116.32,880.42,120.12Z"/></svg>